<?xml version="1.0" ?><!DOCTYPE svg  PUBLIC '-//W3C//DTD SVG 1.1//EN'  'http://www.w3.org/Graphics/SVG/1.1/DTD/svg11.dtd'><svg height="67px" id="Layer_1" style="enable-background:new 0 0 67 67;" version="1.1" viewBox="0 0 67 67" width="67px" xml:space="preserve" xmlns="http://www.w3.org/2000/svg" xmlns:xlink="http://www.w3.org/1999/xlink"><path d="M31.963,35.002c1.608-1.608,1.734-3.845,1.734-5.102  c0-5.051-2.991-12.875-8.796-12.875c-1.81,0-3.77,0.91-4.9,2.31c-1.181,1.468-1.533,3.353-1.533,5.162  c0,4.7,2.714,12.465,8.746,12.465C28.948,36.962,30.833,36.107,31.963,35.002z M3,34c0,7.405,2.683,14.184,7.129,19.415  c0.839-1.41,2.14-2.797,4.066-3.937c4.348-2.664,10.204-3.017,13.37-3.218c-0.98-1.257-2.111-2.589-2.111-4.774  c0-1.182,0.352-1.885,0.704-2.715c-0.779,0.075-1.533,0.151-2.237,0.151c-7.414,0-11.611-5.529-11.611-10.983  c0-3.217,1.483-6.791,4.473-9.377c3.996-3.284,8.746-3.845,12.516-3.845H43.7l-4.474,2.516h-4.322  c1.607,1.329,4.951,4.127,4.951,9.449c0,5.178-2.941,7.615-5.856,9.927c-0.93,0.904-1.96,1.885-1.96,3.418  c0,1.532,1.03,2.388,1.81,3.016l2.513,1.96c3.092,2.564,5.881,4.951,5.881,9.777c0,3.182-1.484,6.376-4.379,8.826  c-1.557,0.255-3.153,0.388-4.781,0.393c2.938-1.289,4.46-3.646,4.46-6.48c0-3.568-2.287-5.453-7.615-9.248  c-0.553-0.051-0.905-0.051-1.608-0.051c-0.628,0-4.398,0.127-7.338,1.106c-1.533,0.553-6.006,2.237-6.006,7.213  c0,0.541,0.058,1.065,0.17,1.569C7.775,52.645,3,43.88,3,34z M60.73,22.532L60.73,22.532c0.44,1.063,0.821,2.159,1.139,3.281  C61.552,24.691,61.171,23.596,60.73,22.532L60.73,22.532L60.73,22.532L60.73,22.532L60.73,22.532L60.73,22.532L60.73,22.532z M33,64  C16.432,64,3,50.568,3,34C3,17.431,16.432,4,33,4c12.507,0,23.227,7.653,27.73,18.532h-5.966v-7.814h-3.349v7.814h-7.814v3.281  h7.814v7.882h3.349v-7.882h7.104C62.605,28.415,63,31.162,63,34C63,50.568,49.568,64,33,64z" style="fill-rule:evenodd;clip-rule:evenodd;fill:#D8D9D8;"/></svg>